<?xml version="1.0" encoding="UTF-8" standalone="no"?>
<svg
   xmlns:dc="http://purl.org/dc/elements/1.1/"
   xmlns:cc="http://creativecommons.org/ns#"
   xmlns:rdf="http://www.w3.org/1999/02/22-rdf-syntax-ns#"
   xmlns:svg="http://www.w3.org/2000/svg"
   xmlns="http://www.w3.org/2000/svg"
   id="svg8"
   version="1.1"
   viewBox="0 0 163.98155 223.69974"
   height="223.69975mm"
   width="163.98155mm">
  <defs
     id="defs2" />
  <metadata
     id="metadata5">
    <rdf:RDF>
      <cc:Work
         rdf:about="">
        <dc:format>image/svg+xml</dc:format>
        <dc:type
           rdf:resource="http://purl.org/dc/dcmitype/StillImage" />
        <dc:title></dc:title>
      </cc:Work>
    </rdf:RDF>
  </metadata>
  <g
     transform="translate(117.19325,83.688814)"
     id="layer1">
    <path
       id="path3968"
       d="m -114.73268,129.05888 c -1.76445,-15.70707 -3.00269,-51.010804 -2.22204,-97.515367 1.50347,-89.567287 -4.56789,-87.572489 19.800543,-88.056261 20.292382,-2.290506 24.9808,-3.410546 26.559119,-16.708071 14.154576,-13.957327 58.299265,-13.957327 70.2055884,0 3.9994699,13.643378 6.7855239,15.119651 26.5591046,16.731248 27.844769,-0.182161 19.664736,3.460437 18.972954,98.29347 0,0 3.697125,57.535472 0,94.734501 -0.588204,5.91837 0.04908,2.39757 -78.412869,2.75774 -84.55467,0.38791 -81.09701,2.81697 -81.4624,-10.23726 z m 145.645541,-14.2997 c 0,-6.29671 0,1.93682 -1.160772,-12.48248 0,0 -23.7057521,-1.59758 -65.244337,-0.87771 l -65.853532,1.14119 c -0.5517,14.15582 -0.5517,5.5803 -0.5517,12.219 0,11.65728 2.046088,9.48646 66.404949,9.48646 64.05907,0 66.405265,0.94948 66.405265,-9.48646 z m 0,-92.058117 c 0,-59.34035 3.301223,-69.409287 -9.486404,-69.409287 -15.7339642,0 -13.3601884,1.078443 -13.3601884,18.97288 0,19.0817704 1.3269107,18.9728296 -5.6127663,18.9728296 -6.0417418,0 -5.6126161,-1.2745216 -5.6126161,-18.9728296 0,-20.290653 -1.1713813,-20.909773 -32.3331342,-20.909773 -33.548711,0 -32.333087,-0.07276 -32.333087,20.909773 0,19.0817704 1.939463,18.9728296 -5.61259,18.9728296 -6.601091,0 -4.688698,0.8173616 -5.612711,-18.9728296 -0.978279,-20.951498 -1.540487,-19.079659 -13.360315,-18.97288 -11.956699,0.107872 -9.486449,4.054853 -9.486449,69.409287 v 67.472546 h 66.405152 66.405109 z m -47.358179,-94.511019 c -0.170204,-4.556435 -38.769923,-5.242772 -39.279899,1.111364 -1.166827,14.541619 -2.520116,13.112235 20.232969,12.50095 20.505898,-0.551065 19.558716,0.08548 19.04693,-13.612314 z"
       style="fill:#000000;stroke-width:9.48644352" />
  </g>
</svg>
