<?xml version="1.0" encoding="UTF-8" standalone="no"?>
<svg
   xmlns:dc="http://purl.org/dc/elements/1.1/"
   xmlns:cc="http://creativecommons.org/ns#"
   xmlns:rdf="http://www.w3.org/1999/02/22-rdf-syntax-ns#"
   xmlns:svg="http://www.w3.org/2000/svg"
   xmlns="http://www.w3.org/2000/svg"
   id="svg8"
   version="1.1"
   viewBox="0 0 283.20013 204.33703"
   height="204.33704mm"
   width="283.20013mm">
  <defs
     id="defs2" />
  <metadata
     id="metadata5">
    <rdf:RDF>
      <cc:Work
         rdf:about="">
        <dc:format>image/svg+xml</dc:format>
        <dc:type
           rdf:resource="http://purl.org/dc/dcmitype/StillImage" />
        <dc:title></dc:title>
      </cc:Work>
    </rdf:RDF>
  </metadata>
  <g
     transform="translate(78.047793,39.651003)"
     id="layer1">
    <path
       id="path3966"
       d="m -72.462064,154.17273 c 16.0395,-41.77194 13.472633,-35.44993 29.675322,-66.538292 l 29.459511,-56.52447 106.985434,-1.54159 c 58.841947,-0.847826 108.889227,0.424355 111.216007,2.826263 2.32678,2.402262 -10.20624,32.347347 -27.85125,66.544672 l -32.08175,62.176907 -108.809541,1.53512 c -114.557662,1.61628 -108.499295,6.41929 -108.593733,-8.47861 z m -5.585729,-96.213704 1.593593,-62.7560333 34.864601,-0.8336512 c 32.7439745,-0.7831534 36.7408924,-1.2053832 36.7408924,-11.1059865 0,-24.197411 -1.1967011,-23.123941 41.6179726,-22.808731 40.037756,0.295012 33.24815,-1.73472 35.452409,25.570056 0.763663,9.4564923 5.784529,9.0718243 37.334815,9.4880298 39.61118,0.5226939 37.11794,-1.3725553 37.15541,11.5746395 -0.34019,13.4720147 0.56433,9.3020757 -79.410273,9.8917447 -56.44013,0.416382 -47.206624,0.980714 -92.701118,1.463718 -20.897358,33.369256 -16.966528,33.016217 -29.527639,57.887014 L -77.765361,121.54933 Z M 57.32829,-14.109626 C 56.492867,-31.452581 61.12623,-29.152023 31.116385,-28.948084 4.5938756,-28.768242 8.8809338,-30.225759 8.2934794,-8.4116514 59.118026,-8.9378875 57.269908,-7.1695016 57.32829,-14.109626 Z"
       style="fill:#000000;stroke-width:5.65244436" />
  </g>
</svg>
