<?xml version="1.0" encoding="UTF-8" standalone="no"?>
<svg
   xmlns:dc="http://purl.org/dc/elements/1.1/"
   xmlns:cc="http://creativecommons.org/ns#"
   xmlns:rdf="http://www.w3.org/1999/02/22-rdf-syntax-ns#"
   xmlns:svg="http://www.w3.org/2000/svg"
   xmlns="http://www.w3.org/2000/svg"
   id="svg8"
   version="1.1"
   viewBox="0 0 243.82428 243.8218"
   height="243.82181mm"
   width="243.82428mm">
  <defs
     id="defs2" />
  <metadata
     id="metadata5">
    <rdf:RDF>
      <cc:Work
         rdf:about="">
        <dc:format>image/svg+xml</dc:format>
        <dc:type
           rdf:resource="http://purl.org/dc/dcmitype/StillImage" />
        <dc:title></dc:title>
      </cc:Work>
    </rdf:RDF>
  </metadata>
  <g
     transform="translate(57.659772,36.985956)"
     id="layer1">
    <g
       style="fill:#000000"
       transform="matrix(6.6943014,0,0,6.6943014,-796.83201,988.35965)"
       id="g3914">
      <path
         id="path3916"
         d="m 125.19452,-119.30835 c -1.76901,-2.39271 -2.33881,-2.63397 -5.02894,-2.12929 -4.24379,0.79614 -5.77582,-0.66807 -5.07003,-4.84559 0.49552,-2.93295 0.27784,-3.46949 -2.12981,-5.24954 -3.39529,-2.51025 -3.39667,-4.51661 -0.005,-6.93186 2.37485,-1.69105 2.61998,-2.26396 2.17197,-5.07626 -0.7118,-4.46826 0.36106,-5.72528 4.33597,-5.08024 2.84268,0.46131 3.53718,0.20286 5.51658,-2.0529 2.78472,-3.17353 5.54329,-3.32848 7.11087,-0.39942 1.24922,2.33419 1.25513,2.33646 6.54371,2.50576 3.45151,0.1105 3.49122,0.1502 3.60171,3.60171 0.1693,5.28858 0.17157,5.29449 2.50576,6.54371 2.92906,1.56759 2.77411,4.32615 -0.39941,7.11087 -2.25576,1.9794 -2.51422,2.67391 -2.05291,5.51658 0.64504,3.97492 -0.61198,5.04778 -5.08024,4.33597 -2.8123,-0.44801 -3.38521,-0.20288 -5.07625,2.17198 -2.41839,3.39631 -4.42194,3.39011 -6.94423,-0.0215 z m 8.36475,-10.60709 c 2.52438,-2.80445 2.95803,-4.5888 1.87221,-7.7036 -1.05391,-3.02324 -5.61173,-5.54323 -8.30318,-4.59078 -3.24494,1.14834 -5.50186,4.03335 -5.50186,7.03303 0,6.22657 7.9205,9.71883 11.93283,5.26135 z"
         style="fill:#000000;stroke-width:0.87249506" />
    </g>
  </g>
</svg>
