<?xml version="1.0" encoding="UTF-8" standalone="no"?>
<svg
   xmlns:dc="http://purl.org/dc/elements/1.1/"
   xmlns:cc="http://creativecommons.org/ns#"
   xmlns:rdf="http://www.w3.org/1999/02/22-rdf-syntax-ns#"
   xmlns:svg="http://www.w3.org/2000/svg"
   xmlns="http://www.w3.org/2000/svg"
   id="svg8"
   version="1.1"
   viewBox="0 0 238.65147 229.52175"
   height="229.52176mm"
   width="238.65147mm">
  <defs
     id="defs2" />
  <metadata
     id="metadata5">
    <rdf:RDF>
      <cc:Work
         rdf:about="">
        <dc:format>image/svg+xml</dc:format>
        <dc:type
           rdf:resource="http://purl.org/dc/dcmitype/StillImage" />
        <dc:title></dc:title>
      </cc:Work>
    </rdf:RDF>
  </metadata>
  <g
     transform="translate(124.54758,72.248191)"
     id="layer1">
    <path
       id="rect3727"
       d="M -20.54576,-72.247898 A 104.00488,101.07516 0 0 0 -124.54758,28.827279 104.00488,101.07516 0 0 0 -20.54576,129.90247 104.00488,101.07516 0 0 0 39.211903,111.4057 c 0.101538,0.0965 0.18196,0.20682 0.290845,0.29816 l 52.152003,43.93443 c 2.931893,2.47003 7.280681,2.10114 9.750699,-0.83074 l 11.06476,-13.13433 c 2.47003,-2.93187 2.09733,-7.28058 -0.83454,-9.7506 L 62.002559,90.110431 A 104.00488,101.07516 0 0 0 83.459973,28.826987 104.00488,101.07516 0 0 0 -20.545695,-72.248191 Z m 1.514401,16.502824 a 84.936467,84.936467 0 0 1 84.938606,84.934903 84.936467,84.936467 0 0 1 -84.938606,84.938601 84.936467,84.936467 0 0 1 -84.934921,-84.938601 84.936467,84.936467 0 0 1 84.934921,-84.934903 z m -3.364795,12.911452 c -21.011465,0 -25.736007,15.18231 10.52108,23.349471 C 0.81354693,-16.625921 11.524899,-2.7104891 14.89573,2.7437382 25.499448,19.900926 38.974034,3.4905309 29.230895,-14.714504 19.940669,-32.073519 0.18295353,-42.833622 -22.396154,-42.833622 Z"
       style="fill:#000000;fill-opacity:1;stroke-width:1.98067188" />
  </g>
</svg>
