<?xml version="1.0" encoding="UTF-8" standalone="no"?>
<svg
   xmlns:dc="http://purl.org/dc/elements/1.1/"
   xmlns:cc="http://creativecommons.org/ns#"
   xmlns:rdf="http://www.w3.org/1999/02/22-rdf-syntax-ns#"
   xmlns:svg="http://www.w3.org/2000/svg"
   xmlns="http://www.w3.org/2000/svg"
   id="svg8"
   version="1.1"
   viewBox="0 0 220.39984 220.39977"
   height="220.39978mm"
   width="220.39984mm">
  <defs
     id="defs2" />
  <metadata
     id="metadata5">
    <rdf:RDF>
      <cc:Work
         rdf:about="">
        <dc:format>image/svg+xml</dc:format>
        <dc:type
           rdf:resource="http://purl.org/dc/dcmitype/StillImage" />
        <dc:title></dc:title>
      </cc:Work>
    </rdf:RDF>
  </metadata>
  <g
     transform="translate(120.00394,89.072693)"
     id="layer1">
    <path
       style="fill:#000000;stroke-width:10.62311649"
       d="M -9.8041052,131.32709 C 51.057602,131.32687 100.39569,81.988801 100.3959,21.127199 100.39569,-39.734428 51.057602,-89.072467 -9.8041052,-89.072693 -70.66575,-89.072467 -120.00379,-39.734428 -120.00394,21.127199 c 1.5e-4,60.861602 49.33819,110.199671 110.1998348,110.199891 z m 0,-13.7612 c -53.2625838,6.5e-4 -96.4411148,-43.176198 -96.4422148,-96.438691 -6.5e-4,-53.263948 43.178327,-96.443076 96.4422148,-96.442323 53.2624982,0.0012 96.4396212,43.17983 96.4388382,96.442323 0,53.261113 -43.177648,96.437511 -96.4388382,96.438691 z M 5.8520756,71.700153 c 1.5740422,-0.123708 2.9333157,-1.414955 5.2104284,-3.151196 3.191525,-2.433795 5.13546,-2.899943 3.504507,-5.720768 C 12.936056,60.007389 7.7299657,54.832791 -3.3731884,42.982345 -14.092027,31.541864 -19.55577,26.258062 -19.821577,21.384149 -20.08746,16.510186 -15.156034,12.043428 -5.0790177,2.2412773 8.1502414,-10.627156 14.835855,-16.162939 17.068704,-19.335389 c 2.232774,-3.17255 0.01506,-3.980962 -4.564441,-7.394528 -3.2120462,-2.394374 -4.1346132,-3.859664 -7.3766097,-1.602397 -3.2420818,2.257368 -8.8036106,8.236088 -21.3055643,20.738067 L -30.520743,6.7486352 -44.860027,21.087979 -32.269406,34.492193 -19.6789,47.896506 c 12.7774973,13.600965 18.6427737,20.150596 22.222679,22.608053 1.3425116,0.921631 2.3639114,1.269918 3.3082966,1.195594 z"
       id="path3836" />
  </g>
</svg>
