<?xml version="1.0" encoding="UTF-8" standalone="no"?>
<svg
   xmlns:dc="http://purl.org/dc/elements/1.1/"
   xmlns:cc="http://creativecommons.org/ns#"
   xmlns:rdf="http://www.w3.org/1999/02/22-rdf-syntax-ns#"
   xmlns:svg="http://www.w3.org/2000/svg"
   xmlns="http://www.w3.org/2000/svg"
   id="svg8"
   version="1.1"
   viewBox="0 0 215.0545 215.05437"
   height="215.05438mm"
   width="215.0545mm">
  <defs
     id="defs2" />
  <metadata
     id="metadata5">
    <rdf:RDF>
      <cc:Work
         rdf:about="">
        <dc:format>image/svg+xml</dc:format>
        <dc:type
           rdf:resource="http://purl.org/dc/dcmitype/StillImage" />
        <dc:title></dc:title>
      </cc:Work>
    </rdf:RDF>
  </metadata>
  <g
     transform="translate(118.33426,96.641082)"
     id="layer1">
    <path
       id="path3804"
       d="m -10.806982,-96.641082 c -59.385545,1.96e-4 -107.527058,48.141636 -107.527278,107.527181 2.2e-4,59.385618 48.141733,107.527061 107.527278,107.527201 59.38557,-1.4e-4 107.52701,-48.141583 107.52723,-107.527201 -2.2e-4,-59.385545 -48.14166,-107.526985 -107.52723,-107.527181 z m 0,13.427358 c 51.970812,-7.59e-4 94.102125,42.129036 94.103275,94.099823 6.37e-4,51.972207 -42.131117,94.104061 -94.103275,94.103321 -51.970737,-10e-4 -94.100628,-42.132535 -94.099818,-94.103321 0.001,-51.96944 42.130427,-94.098623 94.099818,-94.099823 z m -15.276426,44.75342 c -1.535842,0.120707 -2.862247,1.380637 -5.084062,3.074769 -3.114116,2.374768 -5.010854,2.829635 -3.419506,5.581948 1.591348,2.75246 6.671247,7.801559 17.505047,19.36462 10.4588741,11.16289094 15.7901039,16.3185693 16.0495381,21.074323 0.25943412,4.755755 -4.5524622,9.114155 -14.3850801,18.678549 -12.908392,12.556432 -19.431902,17.957932 -21.610527,21.053537 -2.178601,3.095582 -0.01469,3.884314 4.453742,7.215164 3.13407,2.336303 4.034328,3.766055 7.197731,1.563534 3.163378,-2.20262 8.590022,-8.03646 20.7887648,-20.235203 L 9.4072629,24.915914 23.398809,10.924368 11.113515,-2.1548011 -1.1717058,-15.23397 C -13.639285,-28.505168 -19.36231,-34.895851 -22.855416,-37.293806 c -1.309951,-0.89918 -2.306506,-1.238996 -3.227992,-1.166498 z"
       style="fill:#000000;stroke-width:10.36547279" />
  </g>
</svg>
