<?xml version="1.0" encoding="UTF-8" standalone="no"?>
<svg
   xmlns:dc="http://purl.org/dc/elements/1.1/"
   xmlns:cc="http://creativecommons.org/ns#"
   xmlns:rdf="http://www.w3.org/1999/02/22-rdf-syntax-ns#"
   xmlns:svg="http://www.w3.org/2000/svg"
   xmlns="http://www.w3.org/2000/svg"
   id="svg8"
   version="1.1"
   viewBox="0 0 215.72563 215.72585"
   height="215.72586mm"
   width="215.72563mm">
  <defs
     id="defs2" />
  <metadata
     id="metadata5">
    <rdf:RDF>
      <cc:Work
         rdf:about="">
        <dc:format>image/svg+xml</dc:format>
        <dc:type
           rdf:resource="http://purl.org/dc/dcmitype/StillImage" />
        <dc:title></dc:title>
      </cc:Work>
    </rdf:RDF>
  </metadata>
  <g
     transform="translate(58.317885,51.688278)"
     id="layer1">
    <path
       id="path3851"
       d="M -44.036963,148.25698 -58.317885,132.47674 V 107.94719 83.417713 L -19.335702,46.066259 19.646413,8.7148449 36.63116,6.8116759 49.544919,8.9794899 61.436735,16.511663 71.293047,26.660808 67.399242,33.637534 61.46997,43.231355 51.357185,37.997225 38.336652,36.252536 3.7780381,71.686433 -23.801756,100.14151 v 14.68997 14.68991 H -9.3804309 5.0408882 l 13.6230198,-11.59878 18.857088,-16.25145 17.483376,7.53323 23.440184,-0.63526 -32.47444,31.94931 -27.950902,23.51914 H -5.8684039 -29.756022 Z m 81.690085,-52.419327 -11.891798,-7.53218 5.929285,-9.5937 6.510889,-5.52284 13.602144,4.07099 15.63758,-6.39722 L 95.311813,40.66288 122.89167,12.207793 V -2.4822341 -17.172138 H 108.47035 94.048968 L 80.425949,-5.5732911 61.278065,10.387341 43.950441,3.5955589 13.82828,5.5274079 53.119734,-28.169195 81.070643,-51.688278 h 23.887607 23.88762 l 14.28094,15.780242 14.28094,15.780303 V 4.4017429 28.931218 L 118.42562,66.282556 79.443443,103.63403 64.494182,103.50171 49.544919,103.36939 Z"
       style="fill:#000000;stroke-width:8.62902546" />
  </g>
</svg>
