<?xml version="1.0" encoding="UTF-8" standalone="no"?>
<svg
   xmlns:dc="http://purl.org/dc/elements/1.1/"
   xmlns:cc="http://creativecommons.org/ns#"
   xmlns:rdf="http://www.w3.org/1999/02/22-rdf-syntax-ns#"
   xmlns:svg="http://www.w3.org/2000/svg"
   xmlns="http://www.w3.org/2000/svg"
   id="svg8"
   version="1.1"
   viewBox="0 0 232.70958 211.44038"
   height="211.44038mm"
   width="232.70958mm">
  <defs
     id="defs2" />
  <metadata
     id="metadata5">
    <rdf:RDF>
      <cc:Work
         rdf:about="">
        <dc:format>image/svg+xml</dc:format>
        <dc:type
           rdf:resource="http://purl.org/dc/dcmitype/StillImage" />
        <dc:title></dc:title>
      </cc:Work>
    </rdf:RDF>
  </metadata>
  <g
     transform="translate(78.835955,41.779437)"
     id="layer1">
    <path
       id="path3910"
       d="m 13.078209,159.11175 -16.2962162,-9.64916 -37.8089368,-20.68204 -37.809011,-20.68204 11.456164,-5.11185 11.456163,-5.111849 46.3437279,25.261969 46.3435801,25.26196 46.893894,-25.3551 46.893966,-25.355099 11.66105,5.203359 11.66104,5.20328 -57.388573,30.78285 -57.388577,30.78291 -4.861028,-0.44979 -4.861028,-0.4498 z M -24.69018,94.865177 -78.755007,64.605693 l 11.57249,-5.16377 11.572416,-5.163771 45.9994022,25.074294 45.9993288,25.074294 47.13408,-25.073925 47.13408,-25.073999 11.47972,5.122411 11.47973,5.12241 -57.495598,30.840302 -57.495671,30.840301 -4.625273,-0.5399 -4.625274,-0.5399 z m 7.892005,-39.880132 -51.604917,-27.611533 -4.185967,-3.931009 -4.185967,-3.93101 56.71913,-30.645391 56.719055,-30.645539 56.108621,30.348409 56.10862,30.348335 1.67251,1.447835 1.67259,1.447835 -56.800303,30.467246 -56.800226,30.46732 -1.909225,-0.07533 -1.909225,-0.07533 z"
       style="fill:#000000;stroke-width:5.43208694" />
  </g>
</svg>
