<?xml version="1.0" encoding="UTF-8" standalone="no"?>
<svg
   xmlns:dc="http://purl.org/dc/elements/1.1/"
   xmlns:cc="http://creativecommons.org/ns#"
   xmlns:rdf="http://www.w3.org/1999/02/22-rdf-syntax-ns#"
   xmlns:svg="http://www.w3.org/2000/svg"
   xmlns="http://www.w3.org/2000/svg"
   id="svg8"
   version="1.1"
   viewBox="0 0 217.1753 217.17533"
   height="217.17534mm"
   width="217.17531mm">
  <defs
     id="defs2" />
  <metadata
     id="metadata5">
    <rdf:RDF>
      <cc:Work
         rdf:about="">
        <dc:format>image/svg+xml</dc:format>
        <dc:type
           rdf:resource="http://purl.org/dc/dcmitype/StillImage" />
        <dc:title></dc:title>
      </cc:Work>
    </rdf:RDF>
  </metadata>
  <g
     transform="translate(122.87498,94.570571)"
     id="layer1">
    <path
       id="path3932"
       d="m -120.36645,116.24238 2.50858,-6.36243 29.948757,-67.537615 29.948738,-67.537599 34.892374,-34.687619 34.892191,-34.687688 5.398344,3.336349 5.398343,3.33635 -33.66282,34.08541 -33.662889,34.085342 -19.96108,45.322907 -19.961157,45.322998 6.719096,6.71905 6.719074,6.719051 45.322881,-19.961171 45.322827,-19.961098 34.085479,-33.66288 34.085342,-33.662857 3.336349,5.398321 3.33635,5.398275 -34.687688,34.892337 -34.687619,34.892342 -67.537575,29.948707 -67.537627,29.948818 -6.36237,2.50856 -6.36243,2.50853 z M -0.65456073,25.962438 0.11924535,20.698259 29.624716,-9.7912682 c 0,0 29.630442,-28.5574238 30.832125,-29.7155798 1.20166,-1.158203 6.828731,-1.783382 9.400937,0.552552 2.572183,2.336117 1.459945,8.69078 0.22082,9.975572 -1.23885,1.28477 -29.505515,30.6000245 -29.505515,30.6000245 L 10.404308,31.005288 4.8194405,31.668594 0.34006586,30.1209 Z M -19.683363,8.3122505 14.317935,-25.689114 l 34.00139,-34.001366 5.512718,5.512741 5.512742,5.512788 L 26.105056,-15.201895 -7.1346056,18.26116 C -13.959737,16.049345 -16.973424,12.806378 -19.683363,8.3122505 Z m -12.255629,-13.634285 0.994969,-5.5958285 29.2842618,-30.157814 c 0,0 28.9841152,-28.76195 30.2793672,-30.047312 1.295275,-1.285339 8.368619,-2.689475 10.948709,0 2.580022,2.68943 1.350127,10.072924 0,11.412751 -1.350195,1.33985 -30.2792989,30.047244 -30.2792989,30.047244 l -30.1687291,29.27348337 -5.584913,0.77387445 -4.479397,-1.54774892 z"
       style="fill:#000000;stroke-width:4.46920824" />
  </g>
</svg>
